<svg width="64" height="64" viewBox="0 0 64 64" fill="none" xmlns="http://www.w3.org/2000/svg">
<path d="M12.7998 32C12.7998 37.0922 14.8227 41.9758 18.4234 45.5765C22.0241 49.1772 26.9077 51.2001 31.9998 51.2001C37.092 51.2001 41.9756 49.1772 45.5763 45.5765C49.177 41.9758 51.1999 37.0922 51.1999 32C51.1999 26.9079 49.177 22.0243 45.5763 18.4236C41.9756 14.8229 37.092 12.8 31.9998 12.8C26.9077 12.8 22.0241 14.8229 18.4234 18.4236C14.8227 22.0243 12.7998 26.9079 12.7998 32V32Z" fill="#288B32"/>
<path d="M35.1866 28.8016C36.0355 28.8016 36.8496 28.4643 37.4498 27.8641C38.0501 27.2639 38.3873 26.4498 38.3873 25.6009C38.3873 24.7521 38.0501 23.938 37.4498 23.3377C36.8496 22.7375 36.0355 22.4003 35.1866 22.4003H28.7854C27.937 22.4003 27.1234 22.7373 26.5235 23.3372C25.9236 23.9371 25.5866 24.7507 25.5866 25.5991C25.5866 26.4474 25.9236 27.261 26.5235 27.8609C27.1234 28.4608 27.937 28.7978 28.7854 28.7978C27.9365 28.7978 27.1224 29.135 26.5222 29.7352C25.922 30.3355 25.5848 31.1496 25.5848 31.9984C25.5848 32.8473 25.922 33.6614 26.5222 34.2616C27.1224 34.8619 27.9365 35.1991 28.7854 35.1991C28.1524 35.1987 27.5334 35.386 27.0069 35.7374C26.4804 36.0888 26.0698 36.5884 25.8272 37.1731C25.5846 37.7578 25.5209 38.4013 25.644 39.0223C25.7672 39.6432 26.0717 40.2137 26.519 40.6616C26.9664 41.1094 27.5365 41.4146 28.1573 41.5385C28.7781 41.6623 29.4216 41.5993 30.0066 41.3574C30.5916 41.1155 31.0917 40.7056 31.4437 40.1794C31.7957 39.6533 31.9838 39.0346 31.9841 38.4016V28.8016H35.1866ZM35.1866 28.8016C34.554 28.8016 33.9355 28.9892 33.4095 29.3406C32.8835 29.6921 32.4735 30.1917 32.2314 30.7762C31.9893 31.3607 31.9259 32.0039 32.0494 32.6244C32.1728 33.2449 32.4774 33.8148 32.9248 34.2622C33.3721 34.7095 33.9421 35.0142 34.5626 35.1376C35.1831 35.261 35.8263 35.1977 36.4108 34.9556C36.9953 34.7135 37.4948 34.3035 37.8463 33.7774C38.1978 33.2514 38.3854 32.633 38.3854 32.0003C38.3853 31.152 38.0483 30.3384 37.4484 29.7386C36.8485 29.1387 36.035 28.8017 35.1866 28.8016Z" fill="white"/>
</svg>
