<svg width="40" height="40" viewBox="0 0 40 40" fill="none" xmlns="http://www.w3.org/2000/svg">
<circle cx="20" cy="20" r="11.5" fill="#288B32" stroke="#288B32"/>
<path d="M13.864 15.432V24H20.14V23.148H14.848V20.004H19.648V19.152H14.848V16.284H19.936V15.432H13.864ZM24.2886 17.628C23.8806 17.628 23.5086 17.724 23.1726 17.916C22.8366 18.096 22.5606 18.36 22.3446 18.708V17.796H21.3846V24H22.3446V20.256C22.3806 19.692 22.5606 19.248 22.8966 18.912C23.2086 18.6 23.5806 18.444 24.0126 18.444C25.0926 18.444 25.6446 19.044 25.6446 20.256V24H26.6046V20.184C26.6046 18.48 25.8246 17.628 24.2886 17.628Z" fill="white"/>
</svg>
