<svg width="40" height="40" viewBox="0 0 40 40" fill="none" xmlns="http://www.w3.org/2000/svg">
<circle cx="20" cy="20" r="11.5" stroke="#288B32"/>
<path d="M14.606 15.0541L16.2862 13.3755C16.5276 13.1341 16.851 13 17.1902 13C17.5325 13 17.8544 13.1341 18.0958 13.3755L19.9037 15.1835C20.1451 15.4249 20.2792 15.7483 20.2792 16.0875C20.2792 16.4299 20.1451 16.7517 19.9037 16.9931L18.5817 18.3152C18.8925 18.9999 19.32 19.6152 19.8517 20.1468C20.3818 20.6801 20.9986 21.1076 21.6833 21.4216L23.0054 20.0995C23.2468 19.8581 23.5702 19.724 23.9094 19.724C24.2517 19.724 24.5736 19.8581 24.815 20.0995L26.6245 21.9059C26.8659 22.1473 27 22.4708 27 22.8115C27 23.1539 26.8659 23.4757 26.6245 23.7171L24.9475 25.3942C24.5625 25.7807 24.0309 26 23.485 26C23.3698 26 23.2594 25.9905 23.1505 25.9716C21.0239 25.6214 18.9146 24.4902 17.2123 22.7894C15.5116 21.0903 14.382 18.9825 14.027 16.8495C13.9197 16.1979 14.1359 15.5274 14.606 15.0541Z" stroke="#288B32"/>
</svg>
