<svg width="40" height="40" viewBox="0 0 40 40" fill="none" xmlns="http://www.w3.org/2000/svg">
<circle cx="20" cy="20" r="11.5" stroke="#288B32"/>
<path d="M15.3254 21.1389C15.1571 21.1416 14.9184 21.164 14.7325 21.3104C14.6207 21.3985 14.5341 21.5277 14.5079 21.6874C14.4839 21.8342 14.5187 21.9591 14.5537 22.0416C14.6196 22.1966 14.7339 22.3145 14.8127 22.3857C14.8988 22.4635 14.9956 22.5326 15.0861 22.5853C15.0889 22.5872 15.0994 22.5947 15.1173 22.6114C15.138 22.631 15.1632 22.6579 15.1923 22.6931C15.2509 22.7641 15.3133 22.8544 15.3743 22.9538C15.4962 23.1529 15.5873 23.3472 15.6164 23.4244C15.7114 23.7069 15.9225 24.1446 16.4226 24.4454C16.8201 24.6846 17.3466 24.8052 18.0364 24.7502C18.0371 24.8682 18.038 24.98 18.0389 25.0824C18.0396 25.1636 18.0403 25.2383 18.041 25.3056C18.0417 25.3802 18.0423 25.4456 18.0427 25.5C17.7669 25.5003 17.5433 25.724 17.5433 26C17.5433 26.2761 17.7672 26.5 18.0433 26.5H22.6629C22.9391 26.5 23.1629 26.2761 23.1629 26C23.1629 25.7239 22.9392 25.5001 22.6632 25.5C22.6636 25.4183 22.6643 25.3148 22.6651 25.1921C22.6658 25.0912 22.6665 24.9773 22.6673 24.8518C22.6696 24.4781 22.6718 24.0062 22.6718 23.4828C22.6718 23.0696 22.6077 22.7092 22.4949 22.4065C23.12 22.2625 23.7545 22.0083 24.2819 21.5336C25.0432 20.8485 25.5 19.7809 25.5 18.185C25.5 17.3163 25.2439 16.5821 24.808 15.983C24.9123 15.5602 25.0025 14.7897 24.6501 13.8443C24.5983 13.7054 24.4875 13.5966 24.3477 13.5474L24.1816 14.019C24.3477 13.5474 24.3472 13.5472 24.3467 13.547L24.3456 13.5467L24.3435 13.5459L24.3391 13.5444L24.3295 13.5413C24.3228 13.5392 24.3154 13.537 24.3073 13.5348C24.2912 13.5304 24.2724 13.5258 24.251 13.5215C24.2081 13.5129 24.1551 13.5055 24.0917 13.502C23.9644 13.4951 23.7988 13.5046 23.5936 13.5506C23.2222 13.6339 22.7251 13.8359 22.0867 14.2733C21.5273 14.1278 20.9439 14.0556 20.3622 14.0556C19.78 14.0556 19.1962 14.1279 18.6364 14.2736C17.9983 13.8403 17.5022 13.6389 17.1326 13.5547C16.9283 13.5081 16.7638 13.4975 16.6376 13.5032C16.5746 13.506 16.522 13.5127 16.4794 13.5207C16.4582 13.5247 16.4396 13.529 16.4236 13.5332C16.4156 13.5353 16.4082 13.5373 16.4015 13.5393L16.392 13.5423L16.3876 13.5437L16.3855 13.5444L16.3845 13.5447C16.384 13.5449 16.3835 13.545 16.5428 14.019L16.3835 13.545C16.2406 13.5931 16.127 13.7031 16.0743 13.8443C15.7218 14.7898 15.8121 15.5605 15.9165 15.9832C15.4802 16.5845 15.2244 17.3255 15.2244 18.185C15.2244 19.7757 15.6787 20.8427 16.4369 21.529C16.963 22.0052 17.5965 22.2613 18.2219 22.4062C18.1848 22.5057 18.153 22.6114 18.1272 22.7233C17.9831 22.7689 17.8153 22.7992 17.6491 22.7828C17.4234 22.7605 17.1401 22.6488 16.8891 22.1964L16.8892 22.1963L16.8839 22.1872C16.8002 22.0435 16.6334 21.7942 16.3909 21.5758C16.1509 21.3598 15.7877 21.1312 15.3254 21.1389ZM15.3254 21.1389L15.3334 21.6388M15.3254 21.1389C15.3252 21.1389 15.325 21.1389 15.3248 21.1389L15.3334 21.6388M15.3334 21.6388C15.3811 21.638 15.4276 21.6413 15.473 21.648L16.0881 23.2584C16.0063 23.034 15.6516 22.3413 15.3425 22.1559C15.3334 22.1507 15.3243 22.1453 15.315 22.1396C15.2798 22.1412 15.2636 22.1444 15.2612 22.1449C15.2574 22.1458 15.2732 22.1429 15.2992 22.1296C15.0504 21.9706 14.7579 21.648 15.3334 21.6388Z" stroke="#288B32" stroke-linejoin="round"/>
</svg>
