<svg width="64" height="64" viewBox="0 0 64 64" fill="none" xmlns="http://www.w3.org/2000/svg">
<path d="M18.5338 45.4658C14.9624 41.8944 12.9561 37.0506 12.9561 31.9998C12.9561 26.9491 14.9624 22.1052 18.5338 18.5338C22.1052 14.9624 26.9491 12.9561 31.9998 12.9561C37.0506 12.9561 41.8944 14.9624 45.4658 18.5338C49.0372 22.1052 51.0436 26.9491 51.0436 31.9998C51.0436 37.0506 49.0372 41.8944 45.4658 45.4658C41.8944 49.0372 37.0506 51.0436 31.9998 51.0436C26.9491 51.0436 22.1052 49.0372 18.5338 45.4658Z" fill="#288B32" stroke="#288B32" stroke-width="0.3125"/>
<path d="M23.5234 38.3411L24.412 39.9269C24.5967 40.2608 24.8621 40.5231 25.1737 40.7138L28.3474 35.0384H22C22 35.408 22.0923 35.7777 22.277 36.1115L23.5234 38.3411Z" fill="white" stroke="#288B32" stroke-width="0.310002"/>
<path d="M32.0751 28.3613L28.9014 22.6859C28.5898 22.8767 28.3243 23.139 28.1397 23.4728L22.277 33.9652C22.0957 34.2919 22.0002 34.6618 22 35.0383H28.3474L32.0751 28.3613Z" fill="white" stroke="#288B32" stroke-width="0.310002"/>
<path d="M38.9766 40.7138C39.2882 40.5231 39.5536 40.2608 39.7383 39.9269L40.1076 39.2711L41.8733 36.1115C42.058 35.7777 42.1503 35.408 42.1503 35.0384H35.8024L37.1532 37.7807L38.9766 40.7138Z" fill="white" stroke="#288B32" stroke-width="0.310002"/>
<path d="M32.0752 28.3616L35.2489 22.6861C34.9373 22.4954 34.5795 22.4 34.2102 22.4H29.9402C29.5709 22.4 29.2131 22.5073 28.9015 22.6861L32.0752 28.3616Z" fill="white" stroke="#288B32" stroke-width="0.310002"/>
<path d="M35.8022 35.0384H28.3469L25.1732 40.7138C25.4848 40.9046 25.8425 41 26.2118 41H37.9372C38.3065 41 38.6643 40.8927 38.9759 40.7138L35.8022 35.0384Z" fill="white" stroke="#288B32" stroke-width="0.310002"/>
<path d="M38.9419 28.719L36.0106 23.4728C35.8259 23.139 35.5605 22.8767 35.2489 22.6859L32.0752 28.3613L35.8029 35.0383H42.1387C42.1387 34.6687 42.0464 34.2991 41.8618 33.9652L38.9419 28.719Z" fill="white" stroke="#288B32" stroke-width="0.310002"/>
</svg>
