<svg width="40" height="40" viewBox="0 0 40 40" fill="none" xmlns="http://www.w3.org/2000/svg">
<circle cx="20" cy="20" r="11.5" stroke="#288B32"/>
<path d="M27 17.1736C26.5127 17.379 25.9956 17.5141 25.466 17.5742C26.0222 17.2579 26.438 16.7606 26.636 16.1751C26.1116 16.4705 25.5379 16.679 24.9395 16.7914C24.5729 16.4236 24.0983 16.1686 23.5771 16.0594C23.0559 15.9503 22.5122 15.9921 22.0164 16.1794C21.5205 16.3666 21.0954 16.6908 20.7961 17.1098C20.4967 17.5288 20.337 18.0234 20.3375 18.5295C20.3384 18.7225 20.3624 18.9148 20.409 19.1027C19.3476 19.0516 18.3094 18.7892 17.362 18.3326C16.4146 17.876 15.5791 17.2354 14.91 16.4524C14.672 16.8375 14.5463 17.2757 14.546 17.7221C14.5342 18.1341 14.6315 18.5424 14.8291 18.9096C15.0267 19.2768 15.3182 19.5911 15.677 19.8238C15.235 19.8115 14.4095 19.7006 14.4095 19.5095V19.5403C14.4259 20.1268 14.6524 20.6905 15.0518 21.1386C15.4511 21.5867 15.9994 21.8925 16.6065 22.0057C16.3949 22.062 16.1763 22.091 15.9565 22.092C15.7929 22.0926 15.6297 22.0781 15.469 22.0488C15.6406 22.5515 15.9733 22.9908 16.4207 23.3057C16.8681 23.6205 17.4079 23.7952 17.965 23.8054C17.0219 24.5148 15.8538 24.9014 14.65 24.9025C14.4328 24.9022 14.2157 24.8899 14 24.8655C15.2199 25.6077 16.6391 26.0014 18.0885 25.9996C19.0887 26.0095 20.081 25.8303 21.0075 25.4726C21.934 25.115 22.776 24.5859 23.4845 23.9164C24.1931 23.2468 24.7539 22.4502 25.1343 21.5729C25.5146 20.6957 25.707 19.7554 25.7 18.8069V18.4802C26.2109 18.1204 26.6509 17.6781 27 17.1736Z" stroke="#288B32" stroke-linejoin="round"/>
</svg>
