<svg width="64" height="64" viewBox="0 0 64 64" fill="none" xmlns="http://www.w3.org/2000/svg">
<path d="M12.8 32C12.8 37.0922 14.8228 41.9758 18.4235 45.5765C22.0242 49.1772 26.9079 51.2001 32 51.2001C37.0922 51.2001 41.9758 49.1772 45.5765 45.5765C49.1772 41.9758 51.2 37.0922 51.2 32C51.2 26.9079 49.1772 22.0243 45.5765 18.4236C41.9758 14.8229 37.0922 12.8 32 12.8C26.9079 12.8 22.0242 14.8229 18.4235 18.4236C14.8228 22.0243 12.8 26.9079 12.8 32Z" fill="#288B32"/>
<path d="M41.8247 36.1978C42.0171 36.196 42.207 36.1566 42.3824 36.0821C42.5578 36.0076 42.7149 35.8995 42.8436 35.7648C42.9724 35.6301 43.07 35.4716 43.1304 35.2995C43.1908 35.1273 43.2125 34.9453 43.1942 34.7648C43.1999 33.7095 42.8545 32.679 42.2066 31.8182C41.4525 30.7636 40.2977 30.022 38.9802 29.7462C38.4797 29.6408 37.9662 29.5974 37.4394 29.5229C37.4951 28.757 37.3672 27.9891 37.0651 27.2761C36.7631 26.563 36.2946 25.9232 35.6945 25.4038C35.1056 24.8648 34.391 24.4628 33.6079 24.2302C32.8248 23.9975 31.9948 23.9406 31.1841 24.0639C29.8105 24.2591 28.5662 24.9369 27.7013 25.9611C26.8365 26.9854 26.4153 28.2801 26.5223 29.5849C25.1289 29.5381 23.7684 29.9899 22.7142 30.8496C21.66 31.7092 20.9904 32.913 20.8399 34.2189C20.742 34.9683 20.827 35.7289 21.0883 36.4427C21.3496 37.1565 21.7803 37.8047 22.3477 38.338C22.9274 38.9252 23.6495 39.3714 24.4522 39.6382C25.255 39.9051 26.1144 39.9847 26.9569 39.8702C28.0083 39.7798 29.001 39.3731 29.7882 38.7102C30.5783 38.0216 31.3026 37.271 32.0599 36.5452C33.3241 35.3045 34.5751 34.0948 35.8459 32.879C36.2358 32.524 36.7287 32.2861 37.2622 32.1952C37.7958 32.1044 38.3459 32.1648 38.843 32.3687C39.34 32.5726 39.7617 32.9109 40.0545 33.3408C40.3474 33.7707 40.4982 34.2727 40.488 34.7834C40.4728 34.9598 40.4957 35.1374 40.5553 35.3052C40.615 35.4731 40.7102 35.6278 40.8351 35.76C40.9601 35.8923 41.1122 35.9992 41.2823 36.0745C41.4524 36.1497 41.6369 36.1917 41.8247 36.1978V36.1978ZM26.3379 37.333C25.7909 37.3466 25.252 37.2059 24.7905 36.9289C24.329 36.6519 23.9658 36.2513 23.7476 35.7786C23.5294 35.3058 23.4661 34.7823 23.5659 34.2754C23.6657 33.7685 23.9239 33.3013 24.3076 32.9336C24.6912 32.566 25.1827 32.3147 25.7189 32.2121C26.2552 32.1094 26.8118 32.1601 27.3172 32.3575C27.8227 32.555 28.2541 32.8902 28.5559 33.3203C28.8577 33.7503 29.0163 34.2555 29.0112 34.771C29.0113 35.443 28.7312 36.0882 28.2311 36.5674C27.731 37.0467 27.0511 37.3216 26.3379 37.333ZM31.9677 31.7499C31.4224 31.7523 30.8887 31.6017 30.4346 31.3173C29.9805 31.0329 29.6266 30.6275 29.418 30.1529C29.2093 29.6783 29.1554 29.1559 29.2631 28.6522C29.3708 28.1486 29.6352 27.6866 30.0227 27.3251C30.4101 26.9637 30.903 26.719 31.4386 26.6224C31.9742 26.5259 32.5281 26.5817 33.0299 26.7829C33.5316 26.984 33.9584 27.3213 34.2559 27.7519C34.5534 28.1824 34.7081 28.6867 34.7002 29.2003C34.6977 29.5378 34.6243 29.8715 34.4844 30.1823C34.3446 30.493 34.1409 30.7746 33.8851 31.0109C33.6294 31.2473 33.3266 31.4337 32.9941 31.5594C32.6617 31.6852 32.3061 31.7478 31.9479 31.7437L31.9677 31.7499ZM41.5284 37.4509C41.3489 37.4407 41.1691 37.4653 41.0001 37.5231C40.8311 37.5808 40.6764 37.6706 40.5457 37.7869C40.4149 37.9031 40.3108 38.0433 40.2397 38.1989C40.1686 38.3545 40.1321 38.5222 40.1325 38.6916C40.1289 39.0344 40.2697 39.3645 40.5239 39.6098C40.7781 39.8551 41.125 39.9956 41.4889 40.0005C41.8412 39.9947 42.1782 39.8637 42.4323 39.6335C42.6863 39.4034 42.8385 39.0913 42.8584 38.7598C42.8628 38.5915 42.8318 38.424 42.7673 38.2669C42.7027 38.1099 42.6058 37.9665 42.4822 37.8448C42.3586 37.7232 42.2107 37.6258 42.047 37.5582C41.8833 37.4906 41.7071 37.4541 41.5284 37.4509V37.4509Z" fill="white"/>
</svg>
